<svg width="32" height="52" viewBox="0 0 32 52" fill="none" xmlns="http://www.w3.org/2000/svg">
<path d="M2.02211 43.29C3.18529 40.9167 5.22813 40.4362 6.9592 41.4693C9.65196 43.0764 9.6037 44.9405 9.07279 46.945C8.54188 48.9495 5.31081 49.3748 3.98287 48.5017C2.84463 47.7533 0.858927 45.6633 2.02211 43.29Z" stroke="#F19318" stroke-width="2" stroke-linejoin="round"/>
<path d="M26.6714 21.3862C27.3176 20.0677 28.4525 19.8008 29.4142 20.3748C30.9102 21.2676 30.8833 22.3032 30.5884 23.4168C30.2934 24.5304 28.4984 24.7667 27.7607 24.2817C27.1283 23.8659 26.0251 22.7047 26.6714 21.3862Z" stroke="#F19318" stroke-width="2" stroke-linejoin="round"/>
<path d="M3.71133 12.8701C7.21231 12.063 13.5454 9.53709 15.8627 2.31558C14.6892 5.47348 14.2226 12.8995 18.6064 17.7334C13.9745 18.0369 8.33295 22.7252 6.37928 28.5739C9.45268 21.5527 6.27504 15.2835 3.71133 12.8701Z" stroke="#F19318" stroke-width="2" stroke-linejoin="round"/>
<path d="M28.7355 38.9016C26.7656 40.6266 23.5671 44.4407 24.5535 49.9333C24.225 47.4765 21.9811 42.4851 17.5128 40.8427C20.3808 39.0576 22.395 34.0738 21.6455 29.5989C22.0781 35.2204 26.2641 38.2101 28.7355 38.9016Z" stroke="#F19318" stroke-width="2" stroke-linejoin="round"/>
</svg>
