<svg width="45" height="27" viewBox="0 0 45 27" fill="none" xmlns="http://www.w3.org/2000/svg">
<path d="M0.149404 18.3507C-0.140998 18.8204 0.00440943 19.4367 0.474181 19.7271C0.943952 20.0175 1.56019 19.8721 1.8506 19.4023L0.149404 18.3507ZM25.7022 5.7743L25.9977 4.81895L25.7022 5.7743ZM32.4734 1.32213L32.7044 0.349174L32.4734 1.32213ZM40.7602 26.9708C41.2963 27.1033 41.8383 26.776 41.9708 26.2399L44.1295 17.5026C44.2619 16.9664 43.9347 16.4244 43.3985 16.2919C42.8624 16.1594 42.3203 16.4867 42.1879 17.0229L40.269 24.7893L32.5026 22.8705C31.9664 22.7381 31.4244 23.0653 31.2919 23.6015C31.1594 24.1376 31.4867 24.6797 32.0229 24.8121L40.7602 26.9708ZM1.8506 19.4023C3.35161 16.9742 6.47229 12.8914 10.6381 9.88057C14.7969 6.87483 19.8722 5.01787 25.4067 6.72965L25.9977 4.81895C19.6425 2.85337 13.9132 5.04579 9.46658 8.25962C5.02698 11.4683 1.74138 15.7754 0.149404 18.3507L1.8506 19.4023ZM25.4067 6.72965C28.509 7.68917 29.9014 9.16936 30.3674 10.5849C30.8406 12.0227 30.4591 13.6947 29.38 15.2335C27.1745 18.3783 22.6159 20.2649 18.9513 18.0234L17.9077 19.7295C22.7697 22.7035 28.4279 20.0743 31.0175 16.3818C32.3358 14.502 32.9963 12.1749 32.2671 9.95955C31.5305 7.72188 29.4759 5.89473 25.9977 4.81895L25.4067 6.72965ZM18.9513 18.0234C17.1336 16.9116 16.4026 15.3304 16.4259 13.5665C16.4498 11.7444 17.2881 9.66445 18.7761 7.74216C21.7684 3.87651 27.0438 1.0608 32.2424 2.29508L32.7044 0.349174C26.5201 -1.11913 20.5102 2.23462 17.1946 6.51793C15.5286 8.67013 14.4573 11.1596 14.426 13.5401C14.3939 15.9789 15.462 18.2336 17.9077 19.7295L18.9513 18.0234ZM32.2424 2.29508C34.9933 2.94824 36.3288 4.06796 37.0301 5.39486C37.7703 6.79545 37.9076 8.6045 37.853 10.8702C37.7473 15.2491 36.881 21.1126 40.1439 26.5169L41.8561 25.4831C38.9748 20.7109 39.7386 15.6347 39.8524 10.9185C39.9074 8.63657 39.8018 6.35915 38.7983 4.46034C37.7558 2.48785 35.8468 1.09527 32.7044 0.349174L32.2424 2.29508Z" fill="#F19318"/>
</svg>
