<svg width="60" height="36" viewBox="0 0 60 36" fill="none" xmlns="http://www.w3.org/2000/svg">
<path d="M0.292625 24.782C-8.38554e-05 25.2504 0.142292 25.8673 0.610629 26.16C1.07897 26.4527 1.69592 26.3103 1.98863 25.842L1.14062 25.312L0.292625 24.782ZM35.1061 7.49305L35.3987 6.53679L35.3987 6.53679L35.1061 7.49305ZM44.4165 1.43809L44.6451 0.464575L44.4165 1.43809ZM55.9055 35.972C56.4423 36.1018 56.9827 35.7719 57.1126 35.2351L59.2287 26.4874C59.3586 25.9506 59.0287 25.4102 58.4919 25.2804C57.9551 25.1505 57.4146 25.4804 57.2848 26.0172L55.4038 33.7929L47.6281 31.9119C47.0913 31.782 46.5508 32.1119 46.421 32.6487C46.2911 33.1855 46.621 33.726 47.1578 33.8558L55.9055 35.972ZM1.14062 25.312L1.98863 25.842C4.06885 22.5136 8.39004 16.9201 14.1692 12.7888C19.941 8.66278 27.0452 6.07283 34.8136 8.4493L35.1061 7.49305L35.3987 6.53679C26.8188 3.91206 19.0667 6.82927 13.0061 11.1618C6.9527 15.4892 2.46527 21.3058 0.292625 24.782L1.14062 25.312ZM35.1061 7.49305L34.8136 8.4493C39.1533 9.77689 41.1888 11.855 41.878 13.926C42.5739 16.017 42.0006 18.4057 40.4731 20.56C37.3717 24.9342 30.8936 27.6446 25.6238 24.4564L25.1061 25.312L24.5885 26.1676C31.0428 30.0724 38.613 26.6414 42.1046 21.7168C43.8737 19.2218 44.7332 16.1717 43.7756 13.2944C42.8114 10.3971 40.1072 7.9772 35.3987 6.53679L35.1061 7.49305ZM25.1061 25.312L25.6238 24.4564C23.0063 22.8729 21.9427 20.6009 21.9762 18.0858C22.0105 15.5104 23.2043 12.6093 25.283 9.95317C29.4557 4.62146 36.8487 0.688104 44.1879 2.41161L44.4165 1.43809L44.6451 0.464575C36.3329 -1.48743 28.2087 2.96968 23.708 8.72056C21.4501 11.6057 20.0182 14.919 19.9764 18.0592C19.9338 21.2597 21.3439 24.2046 24.5885 26.1676L25.1061 25.312ZM44.4165 1.43809L44.1879 2.41161C48.047 3.31788 49.9895 4.89237 51.0156 6.81281C52.0805 8.80564 52.2636 11.3481 52.1883 14.4319C52.0416 20.4467 50.8688 28.283 55.2871 35.521L56.1406 35L56.9942 34.479C52.9642 27.877 54.0327 20.8354 54.1877 14.4807C54.2634 11.3798 54.1124 8.36461 52.7796 5.87027C51.4081 3.30353 48.8894 1.46129 44.6451 0.464575L44.4165 1.43809Z" fill="#7982B6"/>
</svg>
