<?xml version="1.0" encoding="UTF-8"?>
<svg id="Lag_1" data-name="Lag 1" xmlns="http://www.w3.org/2000/svg" viewBox="0 0 1000 1000">
  <defs>
    <style>
      .cls-1 {
        fill: #0d5e41;
      }

      .cls-2 {
        stroke-miterlimit: 10;
      }

      .cls-2, .cls-3 {
        fill: none;
        stroke: #0d5e41;
        stroke-linecap: round;
        stroke-width: 7px;
      }

      .cls-3 {
        stroke-linejoin: round;
      }
    </style>
  </defs>
  <g id="Lag_2" data-name="Lag 2">
    <g>
      <path class="cls-3" d="M373.66,570.74s-37.8-32-56.5-71.9c0,0,27.5-45.1-60.8-108.5,0,0,6.2,114.9,60.8,108.5"/>
      <line class="cls-3" x1="298.86" y1="466.34" x2="317.06" y2="498.84"/>
      <path class="cls-3" d="M359.56,514.94l-10.3,31.3c-23.8-47.4,33.2-104,33.2-104,0,0,18.8,86.2-33.2,104"/>
      <path class="cls-3" d="M305.26,532.04l30.5-2.6c-21.4-13.3-27.2-12-43.9-12s-35.6-5.1-35.6-5.1c0,0,25.6,64.8,79.5,17.1"/>
      <path class="cls-2" d="M507.56,345.04s16.9,33.3-4.6,113.2c-19.2,71.5,27.4,112.5,27.4,112.5"/>
      <path class="cls-3" d="M514.36,387.04c48.3-54.2-41.8-121.1-41.8-121.1,0,0-14.1,105.7,41.8,121.1"/>
      <path class="cls-3" d="M473.66,448.84l27.1,19.2c-6.3-57.1-81.3-72.5-81.3-72.5,0,0,27.4,103.3,81.3,72.5"/>
      <path class="cls-3" d="M535.06,429.44l-29.1,17.1c8.4-51,89.2-46.2,89.2-46.2,0,0-52.2,73.4-89.2,46.2"/>
      <path class="cls-3" d="M728.16,434.64s0,62.4-66.4,133.8"/>
      <path class="cls-3" d="M720.66,474.74c-40-41.5,25.4-127.4,25.4-127.4,0,0,38.6,108.1-25.4,127.5"/>
      <path class="cls-3" d="M694.36,525.94c50,29.2,90-24.2,90-24.2,0,0-66.3-20.4-90,24.2"/>
      <path class="cls-3" d="M674.06,500.34l18.2,28.8c14.3-45.3-47.3-83.4-47.3-83.4,0,0-3.5,87.8,47.3,83.4"/>
      <line class="cls-3" x1="725.26" y1="516.04" x2="698.16" y2="525.64"/>
      <path class="cls-3" d="M503.56,526.34c-6.2-39.8,63.8-52.6,63.8-52.6,0,0-26.4,59.7-63.8,52.6"/>
      <path class="cls-3" d="M426.26,549.54c-26.3,16.2,11.1-63.3,11.1-63.3,0,0,32.1,36.7-11.1,63.3Z"/>
      <path class="cls-3" d="M339.16,338.64s-25.8,58.7,4.3,81.3c0,0,30.1-35.8-4.3-81.3"/>
      <path class="cls-3" d="M393.36,321.34c-2.7-35.3,52.5,34.5,52.5,34.5,0,0-49,11.3-52.5-34.6h0v.1Z"/>
      <path class="cls-3" d="M185.96,485.44s45.8,21.9,54.4,60.8c0,0-58.2,14.8-54.4-60.8"/>
      <path class="cls-3" d="M572.56,367.94s19.7-48.6,56.5-58.6c0,0,15.6,60.7-56.5,58.6"/>
      <path class="cls-3" d="M664.26,363.54s-42.5,59.8,10.4,68.9c0,0-6.6-11.7-3.2-26,6.4-27.1-7.2-42.9-7.2-42.9Z"/>
      <path class="cls-3" d="M773.46,563.54c-36.1.9,52.8-57.7,52.8-57.7,0,0,7,56.3-52.8,57.7Z"/>
      <path class="cls-3" d="M606.96,483.34s27.4,41.7,20.5,72c0,0-55.9-10.7-20.5-72"/>
    </g>
  </g>
  <g id="Lag_5" data-name="Lag 5">
    <g>
      <path class="cls-1" d="M136.16,621.34c.5.8,1,2,1.5,3.3.5,1.4.7,2.7.7,3.8,0,2.3-.5,4.4-1.6,6.3-1.1,1.9-2.4,3.5-4.1,4.8s-3.5,2.3-5.5,3-4,1.1-6,1.1-3.3-.3-4.8-1-2.7-1.6-3.8-2.8-1.9-2.5-2.5-4.1-.9-3.2-.9-5c0-3.2.8-6,2.3-8.5,1.6-2.5,3.7-4.6,6.3-6.5,2.6-1.8,5.7-3.4,9.2-4.7,3.5-1.3,7.1-2.3,11-3.2,3.9-.9,7.8-1.6,11.7-2s7.8-.8,11.3-1.1c3.6-.2,6.9-.4,9.9-.5h7.4c1.9,0,1.1,0,1.9-.3s1.6-.4,2.5-.5c.9-.2,1.7-.4,2.4-.5s1.4-.3,1.8-.3c1.9,0,2.9.5,2.9,1.6s-.3,1.3-.9,1.6-1.5.5-2.6.5-2,0-3.1-.3-2.2-.3-3.3-.5c-.8.1-1.9.5-3.4,1.1s-3.1,1.6-5,3c-1.8,1.4-3.7,3.1-5.7,5.3s-3.9,4.9-5.7,8.1c-6.2,10.9-10.9,19.5-14.3,25.8-3.4,6.3-5.7,10.5-6.8,12.6,5.3-1.2,10-3.4,14.2-6.7,4.2-3.2,8-7.2,11.4-11.9l.8.4c-1.3,1.8-2.7,3.7-4.4,5.7s-3.7,3.8-5.9,5.6-4.7,3.4-7.4,4.8c-2.8,1.5-5.8,2.6-9.2,3.4-2.6,4.5-5.4,8.7-8.6,12.6s-6.5,7.2-10.2,10-7.6,5-11.7,6.6-8.5,2.4-13.1,2.4-3.6-.2-5.4-.6c-1.8-.4-3.5-1.1-4.9-2s-2.6-2.2-3.6-3.7-1.4-3.3-1.4-5.5.7-4.6,2.1-6.3,3.3-3.2,5.7-4.3c2.4-1.2,5.3-2.1,8.7-2.9s7-1.4,11-2c4.2-.7,8-1.2,11.2-1.6s5.7-.8,7.4-1.3c1.7-2.9,3.4-5.8,4.9-8.8,1.6-3,3.1-6,4.8-9.1,1.6-3,3.2-6.1,5-9.1,1.7-3,3.5-5.9,5.4-8.7,4.9-7,9.9-12.2,15.3-15.9,5.3-3.6,10.9-6,16.7-7.2v-.2h-4.7c-2.2,0-4.8.2-7.8.4s-6.2.5-9.6,1c-3.4.4-6.9,1-10.4,1.9s-6.9,1.8-10.1,3.1-6.1,2.8-8.6,4.6-4.5,3.9-6,6.4-2.3,5.3-2.3,8.5.8,5,2.4,6.6,3.7,2.3,6.2,2.3,2.6-.3,3.8-1,2.3-1.5,3.2-2.5,1.7-2.3,2.3-3.7.9-2.9.9-4.4-.6-3.9-1.9-6.3l.7-.6h0l.3-.1ZM89.06,684.14c0,2.7.8,4.9,2.4,6.6s3.7,2.5,6.3,2.5,6.5-1,9.2-2.9,5.2-4.3,7.4-7.2c2.2-2.8,4.2-5.9,6-9.1,1.8-3.2,3.5-6.2,5.1-8.8-2.1.4-4.2.7-6.3,1s-4.2.6-6.3,1c-2.1.4-4.2.8-6.3,1.3s-4.2,1.2-6.3,2c-1.4.5-2.7,1.2-4,2s-2.5,1.8-3.6,2.9-1.9,2.4-2.6,3.8c-.7,1.4-1,3-1,4.7h0v.2Z"/>
      <path class="cls-1" d="M179.86,633.84c-.4.9-1.1,2.2-2,3.7-.9,1.6-1.9,3.3-3.1,5.2s-2.3,3.8-3.5,5.8-2.3,4-3.3,5.8-1.8,3.5-2.4,5-.9,2.6-.9,3.4.1,1.4.4,2,.8.9,1.5.9c1.1,0,2.5-.5,4-1.6s3.1-2.5,4.7-4.3c1.6-1.8,3.2-3.7,4.7-5.8,1.5-2.2,2.9-4.2,3.9-6.3l6.8-12.6,12.1-.4c-3,5.4-5.9,10.6-8.9,15.8-3,5.1-5.9,10.2-8.8,15.1l.2.2c1.8-.7,3.8-1.8,6.2-3.3s4.7-3.3,7.2-5.4,4.9-4.4,7.2-6.9,4.4-5.1,6.2-7.7l.7.5c-1,1.5-2.5,3.4-4.4,5.6-1.9,2.2-4.1,4.5-6.6,6.8s-5.2,4.5-8.2,6.7c-3,2.1-6.1,3.8-9.2,5.1-2.2,4.3-4.7,8.3-7.5,12-2.8,3.6-5.9,6.7-9.3,9.3s-7.2,4.6-11.3,6-8.6,2.2-13.4,2.2-3.8-.2-5.8-.7-3.9-1.2-5.6-2.3-3.1-2.4-4.2-4-1.6-3.6-1.6-6,.4-3.5,1.2-5c.8-1.5,1.9-2.7,3.2-3.6,1.3-1,2.8-1.7,4.4-2.2,1.6-.5,3.2-.7,4.8-.7,2.4,0,4.9.3,7.4.8v.8c-.3-.1-.8-.2-1.3-.2h-1.5c-1.5,0-2.7.3-3.7.9s-1.8,1.3-2.4,2.3c-.6.9-1,2-1.3,3.3s-.4,2.6-.4,4c0,3.6.8,6.5,2.3,8.5s3.6,3,6.3,3,5.2-.7,7.6-2.1,4.8-3.3,7-5.5,4.3-4.8,6.3-7.8,3.9-5.8,5.6-8.8c1.8-3,3.4-5.9,5-8.7s3-5.2,4.4-7.3l-.2-.2c-1.1,1.4-2.3,2.9-3.6,4.4s-2.7,3-4.3,4.3-3.3,2.4-5.1,3.2-3.8,1.3-5.9,1.3-2-.2-2.8-.6-1.4-1-1.9-1.7-.9-1.6-1.1-2.5c-.2-.9-.3-1.9-.3-2.9,0-2.2.5-4.5,1.5-6.8s2.2-4.6,3.5-6.9,2.7-4.4,4.1-6.5c1.4-2.1,2.4-4,3.2-5.8l12.2-.7h0v-.1Z"/>
      <path class="cls-1" d="M266.66,603.14c-4.8,8.5-8.9,15.7-12.4,21.8-3.4,6.1-6.4,11.2-8.8,15.5-2.4,4.3-4.3,7.7-5.7,10.4s-2.5,4.8-3.3,6.5-1.3,2.9-1.5,3.8c-.3.9-.4,1.7-.4,2.3s.2,1.3.6,1.8.9.7,1.8.7,2.3-.6,4.1-1.8,3.6-2.8,5.4-4.7c2.9-3,5.3-6,7.4-9,2.1-3,3.7-5.3,4.8-7l.8.5c-1.3,2-3.1,4.6-5.4,7.8-2.3,3.2-4.9,6.3-7.9,9.5-2.4,2.5-4.7,4.4-6.8,5.5s-4.2,1.7-6.3,1.7-4-.7-5.3-2.2-1.9-3.3-1.9-5.4.1-1.4.4-2.2l-.2-.2c-2,2.7-4.3,5.1-6.9,7-2.6,2-5.7,3-9.2,3s-4.7-.9-6-2.8c-1.3-1.9-2-4.1-2-6.6s.8-6.8,2.4-9.9,3.7-5.8,6.3-8.1,5.4-4.1,8.6-5.4c3.2-1.3,6.3-2,9.4-2s3.3.6,4.4,1.7c1.1,1.2,1.9,2.6,2.3,4.3l18.8-35.5,12.3-.9h0l.2-.1ZM232.96,639.14c0-1.4-.2-2.5-.7-3.4-.5-.8-1.4-1.3-2.7-1.3s-3.5.9-5.4,2.7-3.7,4-5.3,6.6-3,5.3-4,8.2c-1.1,2.9-1.6,5.4-1.6,7.5s.2,2.5.7,3.4,1.2,1.3,2.3,1.3,2.7-.5,4.1-1.4c1.3-.9,2.6-2.1,3.9-3.6,1.2-1.5,2.4-3.2,3.5-5,1.1-1.9,2-3.7,2.8-5.6.8-1.8,1.4-3.6,1.9-5.3s.7-3.1.7-4.3h0l-.2.2Z"/>
      <path class="cls-1" d="M296.26,643.94c-1.3,2-2.8,4-4.4,6s-3.5,4.1-5.5,6.2c-3.9,4-7.8,7-11.5,9.1-3.7,2-7.9,3.1-12.4,3.1s-6.9-1-9-2.9-3.1-4.8-3.1-8.4.9-6.2,2.6-9.1,3.9-5.3,6.5-7.4c2.6-2.1,5.4-3.8,8.5-5.1s6-1.9,8.7-1.9,5,.5,6.8,1.4,2.6,2.5,2.6,4.6-1,4-2.9,5.5-4.2,2.9-6.9,4c-2.6,1.1-5.3,2-8,2.7s-4.8,1.2-6.3,1.6c-.1.6-.2,1.2-.3,1.8v1.8c0,1.1.1,2.2.3,3.2s.6,2,1.2,2.8c.5.8,1.2,1.4,2.1,1.9s2,.7,3.3.7c2.7,0,5.6-1,8.6-3.1,3.1-2.1,6.2-4.7,9.3-7.8,2-2,3.8-4,5.3-6,1.5-1.9,2.8-3.7,3.8-5.3l.8.5h0l-.1.1ZM277.46,637.14c0-1.7-.8-2.5-2.4-2.5s-2.6.7-4.1,2c-1.5,1.4-2.8,3-4,4.9s-2.3,3.8-3.2,5.8-1.5,3.7-1.7,5c2.4-.5,4.5-1.4,6.5-2.5s3.5-2.4,4.9-3.8,2.4-2.9,3-4.4,1-3.1,1-4.5h0Z"/>
      <path class="cls-1" d="M279.76,667.24l17.3-32.3,12.3-.4-13.1,20.5.2.2c3.1-4.8,6.1-8.6,8.8-11.5s5.1-4.8,7.1-5.7c.8-1,1.5-1.8,2.1-2.5.6-.6,1.4-1.1,2.4-1.5s2.3-.6,4-.8,4-.3,6.9-.4c-.7.7-1.4,1.5-2,2.5-.7.9-1.3,1.9-1.9,2.9s-1,2.1-1.4,3.2c-.4,1.1-.6,2.2-.6,3.2s.3,2.5.9,3.5,1.5,1.6,2.9,1.6,1.7-.2,2.6-.6c.9-.4,1.7-.9,2.5-1.5s1.5-1.3,2.3-2.1c.7-.8,1.4-1.5,1.9-2.3l.6.5c-.4.5-1,1.2-1.7,2.1s-1.7,1.9-3,2.8c-1.2.9-2.7,1.7-4.5,2.4s-4,1-6.5,1-2.6-.2-3.8-.7c-1.1-.5-2.1-1-2.9-1.8-.8-.7-1.4-1.6-1.8-2.5s-.6-2-.6-3.1c0-1.8.2-3.2.7-4.3v-.2c-1.7,1-3.6,2.6-5.6,4.8s-4,4.7-5.9,7.4-3.6,5.4-5.2,8.1-2.8,4.9-3.5,6.8l-11.5.5h0v.2Z"/>
      <path class="cls-1" d="M348.56,633.84l-3,4.9c-2.7,4.3-4.9,7.9-6.6,10.7s-2.9,5-3.9,6.7c-.9,1.7-1.5,3-1.8,4-.3.9-.4,1.8-.4,2.5s.2,1.4.6,1.9,1,.7,1.7.7c1.1,0,2.6-.7,4.4-2,1.8-1.4,3.8-3.3,5.9-5.9s4.4-5.8,6.8-9.5,4.8-8,7.1-12.8l12.4-.4c-.5.9-1.2,2.1-2.2,3.6s-2,3.2-3.2,4.9-2.4,3.7-3.6,5.7-2.3,3.9-3.3,5.8c-1,1.8-1.8,3.6-2.4,5.2s-.9,2.9-.9,3.9.2,1.4.5,1.8.8.5,1.4.5c1,0,2.1-.4,3.4-1.3,1.3-.8,2.6-2,4.1-3.3,1.5-1.4,2.9-2.9,4.5-4.6s2.9-3.4,4.3-5.1c1.3-1.7,2.6-3.3,3.7-4.8s2-2.8,2.7-3.7l.8.7c-1,1.2-2.1,2.7-3.3,4.3s-2.6,3.4-4.1,5.2-3,3.6-4.6,5.4c-1.6,1.8-3.3,3.4-5,4.8-1.7,1.4-3.4,2.5-5.2,3.4-1.7.9-3.5,1.3-5.2,1.3s-2.3-.2-3.2-.6-1.7-1-2.2-1.7c-.6-.7-1-1.6-1.3-2.5s-.4-1.9-.4-2.9,0-1.5.3-2.2c.2-.7.3-1.3.5-1.8l-.2-.2c-1.3,1.5-2.5,3-3.9,4.4-1.3,1.4-2.7,2.7-4.1,3.8s-2.9,2-4.4,2.7-3,1-4.5,1c-2.4,0-4.2-.7-5.3-2.2-1.1-1.5-1.7-3.4-1.7-5.7s.3-2.6.8-4.1,1.2-3.2,2-4.8,1.7-3.4,2.7-5.2,2-3.4,2.9-4.9,1.8-2.9,2.5-4.2c.8-1.2,1.4-2.2,1.8-3l12.3-.4h-.2Z"/>
      <path class="cls-1" d="M405.66,616.24l-21.4,33.8.2.2c1.2-1.6,2.5-3.4,3.9-5.3,1.4-1.9,3-3.8,4.7-5.4s3.5-3.1,5.5-4.3,4-1.7,6.2-1.7,2.4.3,3.4.8,1.9,1.3,2.6,2.2,1.3,2,1.8,3.1c.4,1.2.6,2.4.6,3.7,0,3.1-.6,5.8-1.8,8.2s-2.6,4.4-4.1,6.1v.2c4-1.2,7.7-3.1,10.9-5.6s6.1-5.5,8.8-9.1l.7.5c-2.7,4-5.9,7.3-9.6,10s-7.7,4.5-11.9,5.6c-1.4,1.3-2.9,2.5-4.6,3.5-1.7,1.1-3.4,2.1-5.1,2.9-1.7.8-3.4,1.5-5,2s-3.1.7-4.4.7h-1.8c-.6,0-1.2-.2-1.7-.5s-.9-.6-1.2-1c-.3-.5-.5-1-.5-1.8,0-1.2.5-2.2,1.6-3s2.3-1.4,3.9-1.8,3.1-.8,4.7-1,3-.3,4.1-.4c.5-.8,1.1-1.8,1.8-3,.7-1.2,1.3-2.4,1.9-3.8s1.2-2.8,1.6-4.4c.4-1.6.6-3.2.6-4.9s0-.9,0-1.5-.2-1.1-.4-1.6c-.2-.5-.6-.9-1-1.3s-1.1-.5-1.8-.5c-1.4,0-2.9.9-4.7,2.6-1.7,1.8-3.5,3.9-5.3,6.4s-3.5,5.1-5.2,7.8-3.1,5.1-4.5,7.1c-3.6,5.6-6.9,11.2-10,17s-6.2,11.5-9.2,17.2l-12.2.5c7.8-13.1,15.5-26.3,23-39.5s15.1-26.5,22.8-40l12.2-.9h0l-.1.2ZM385.96,665.24c0,.5.1.9.3,1.3s.6.6,1.2.6,1.5-.3,2.2-.8,1.4-1.2,2-1.9c.7-.8,1.3-1.6,1.9-2.4.6-.8,1.2-1.6,1.8-2.3-1.3,0-2.5.2-3.6.5s-2.1.7-3,1.1-1.6,1-2.1,1.6-.8,1.3-.8,2.1h0l.1.2Z"/>
      <path class="cls-1" d="M494.96,635.64c-5,10.7-10.9,18.8-17.8,24.2s-14.6,8.1-23.1,8.1-3.1-.2-4.8-.6-3.1-1-4.5-1.8-2.5-1.9-3.3-3.2-1.3-2.8-1.3-4.6.6-3.8,1.7-5.3,2.7-2.3,4.8-2.3,2.8.6,3.7,1.7c.9,1.2,1.3,2.5,1.3,4.1s-.3,1.9-.9,2.7-1.4,1.3-2.2,1.7c0,2,.4,3.6,1.3,4.8s2.3,1.8,4.3,1.8c3.3,0,6.2-.8,8.7-2.4,2.5-1.6,4.8-3.7,6.9-6.3s4-5.7,5.9-9.2c1.8-3.5,3.7-7.1,5.7-10.8s4.1-7.4,6.4-11.1c2.3-3.7,4.9-7.2,7.9-10.3,3-3.2,6.4-5.9,10.3-8.3,3.9-2.4,8.4-4,13.6-5.1v-.2c-2.4,0-5.5,0-9.2.2-3.8.2-7.8.5-12,1.1s-8.5,1.4-12.8,2.5-8.1,2.6-11.6,4.4-6.3,4.2-8.4,6.9c-2.2,2.8-3.2,6.1-3.2,10s.5,4.2,1.6,5.8,2.8,2.4,5.4,2.4,3.2-.3,4.7-1,2.8-1.6,3.9-2.7c1.1-1.2,2-2.5,2.6-3.9.7-1.5,1-2.9,1-4.4s-.1-2.2-.4-3.3c-.3-1-.6-1.9-.9-2.5l.8-.3c.5.7.8,1.6,1.1,2.7.3,1.1.4,2.3.4,3.5,0,2.2-.5,4.3-1.5,6.1s-2.3,3.5-4,4.8-3.6,2.4-5.7,3.2-4.3,1.1-6.5,1.1-3.1-.3-4.5-.9c-1.4-.6-2.6-1.4-3.7-2.5s-1.9-2.2-2.5-3.6-.9-2.9-.9-4.4c0-4.1,1.2-7.8,3.9-11,2.6-3.2,6.3-6,11-8.2s10.3-3.9,16.8-5c6.5-1.2,13.5-1.7,21.1-1.7s5.8,0,8.3-.3c2.5-.2,4.8-.4,6.8-.7s3.7-.5,5.2-.7,2.5-.3,3.3-.3c1.2,0,2,.2,2.3.6s.4.8.4,1.1-.2.7-.6,1c-.4.3-1.2.5-2.2.5s-1.4,0-2.4-.3c-1-.2-2-.3-3.2-.3-2,0-4,.6-6,1.7s-3.9,2.6-5.8,4.4c-1.9,1.8-3.6,3.9-5.4,6.2s-3.3,4.6-4.7,6.9-2.7,4.5-3.8,6.6c-1.1,2.1-1.2,2.2-1.8,3.7h11.6c2.6-5.3,4.7-8.1,8.2-12s7-7.1,10.7-9.7,7.4-4.5,11-5.8,7-1.9,10.1-1.9,2,0,3.3.1c1.3,0,2.5.3,3.7.7s2.2,1,3,1.8,1.2,1.8,1.2,3.2-.4,2.4-1.2,3.3c-.8.8-1.8,1.3-3,1.3s-2.4-.5-3.2-1.4-1.5-2-2.1-3c-.7-1.1-1.3-2.1-2-3s-1.7-1.4-2.9-1.4c-2.5,0-5,1-7.6,2.9s-5.2,4.4-7.6,7.5c-2.5,3.1-4.8,6.6-6.9,10.5-2.2,3.9-4.1,7.8-5.7,11.8-1.6,4-2.9,7.8-3.8,11.4s-1.4,6.8-1.4,9.4v2.8c0,.9.2,1.7.4,2.3.2.7.6,1.2,1,1.6.4.4,1,.6,1.8.6,1.2,0,2.6-.5,4.1-1.4s2.9-2.1,4.5-3.5,3-3,4.4-4.8,2.8-3.5,4-5.1,2.3-3.1,3.2-4.5,1.7-2.4,2.2-3l.7.4c-1,1.4-2.2,3-3.4,4.8s-2.6,3.6-4,5.4c-1.4,1.8-3,3.7-4.6,5.5s-3.3,3.4-5,4.8-3.5,2.5-5.4,3.3-3.8,1.3-5.8,1.3-3.1-.3-4.3-1c-1.2-.7-2.1-1.5-2.8-2.6-.7-1.1-1.2-2.4-1.5-3.8s-.5-3-.5-4.5.2-3.5.6-5.3.8-3.6,1.4-5.4,1.2-3.6,1.9-5.3,1.4-3.4,2-4.9h-11.5l-.3-.4Z"/>
      <path class="cls-1" d="M576.06,634.54c-.6,1-1.4,2.2-2.4,3.7s-2.1,3.1-3.2,4.9c-1.1,1.8-2.3,3.6-3.4,5.5-1.1,1.9-2.2,3.8-3.1,5.6-.9,1.8-1.7,3.5-2.3,5.1s-.9,2.9-.9,4c0,1.8.7,2.6,2,2.6s2.6-.6,4.2-1.8,3.4-2.8,5.3-4.8c1.9-2,4-4.4,6.1-7.1,2.1-2.7,4.2-5.6,6.4-8.6l.5.4c-2.3,3.1-4.5,6.1-6.7,9s-4.3,5.5-6.5,7.8-4.3,4.1-6.4,5.5c-2.1,1.4-4.3,2.1-6.5,2.1s-3.4-.3-4.5-1-1.8-1.5-2.3-2.5-.8-2-.9-3.1c0-1.1-.1-2-.1-2.9l-.3-.2c-.9,1.2-1.9,2.3-3,3.5s-2.2,2.2-3.5,3.1c-1.3.9-2.6,1.7-3.9,2.3-1.4.6-2.8.9-4.4.9-2.7,0-4.8-.9-6.2-2.6-1.4-1.7-2.1-4.5-2.1-8.3s.6-5.4,1.9-8.2,3-5.4,5.3-7.7,5.1-4.2,8.3-5.8,6.7-2.3,10.5-2.3,3.9.6,5.1,1.8c1.2,1.2,1.9,2.7,2.3,4.4h.2l2.2-4.7,12.2-.4h0l.1-.2ZM542.06,664.24c1.2,0,2.7-.8,4.6-2.5s3.7-3.7,5.6-6.3c1.8-2.5,3.4-5.3,4.7-8.3s2-5.8,2-8.6-.4-2.4-1.2-3.1c-.8-.7-1.6-1-2.6-1s-2.4.4-3.6,1.3c-1.2.8-2.4,2-3.6,3.4-1.2,1.4-2.3,3-3.3,4.8-1.1,1.8-2,3.6-2.8,5.4-.8,1.8-1.4,3.7-1.9,5.5s-.7,3.4-.7,4.8.2,2,.6,3,1.1,1.5,2.3,1.5h0l-.1.1Z"/>
      <path class="cls-1" d="M598.76,634.54c-.9,1.6-2.1,3.7-3.7,6.2s-3.2,5.1-4.8,7.8-3,5.3-4.2,7.9c-1.2,2.6-1.8,4.8-1.8,6.6s.3,2.2.9,3c.6.8,1.5,1.2,2.7,1.2,1.8,0,3.6-.7,5.4-2.1,1.8-1.4,3.6-3.2,5.2-5.4,1.7-2.2,3.2-4.8,4.5-7.6s2.4-5.7,3.2-8.6c-.2-.5-.4-1.2-.5-1.8,0-.7-.1-1.3-.1-2,0-1.6.5-3,1.4-4.3s2.1-1.9,3.7-1.9,3.7.7,4.7,2c.9,1.4,1.4,3.2,1.4,5.4s-.2,3-.5,4.3c1,1.1,2.1,1.8,3.1,2.2,1.1.4,2.1.5,3,.5,1.9,0,3.5-.5,4.9-1.5s2.5-2.2,3.5-3.5l.8.5c-.4.6-.9,1.2-1.5,1.9s-1.3,1.3-2.1,1.8-1.6,1-2.5,1.4-1.9.5-3,.5c-2.3,0-4.5-.8-6.4-2.5-.8,3.1-2.2,6.1-4.2,8.8s-4.3,5-6.9,6.9c-2.6,1.9-5.5,3.4-8.5,4.5s-6.1,1.6-9.1,1.6-6.2-1-8-3-2.8-4.7-2.8-8.1.3-3.1.8-4.7,1.2-3.3,2.1-5.1c.9-1.8,2-3.8,3.2-5.8,1.2-2.1,2.5-4.3,4-6.7l12.2-.4h-.1Z"/>
      <path class="cls-1" d="M668.06,643.94c-1.3,2-2.8,4-4.4,6-1.6,2-3.5,4.1-5.5,6.2-3.9,4-7.8,7-11.5,9.1-3.7,2-7.8,3.1-12.4,3.1s-6.9-1-9-2.9c-2-1.9-3.1-4.8-3.1-8.4s.9-6.2,2.6-9.1,3.9-5.3,6.5-7.4c2.6-2.1,5.4-3.8,8.5-5.1s6-1.9,8.7-1.9,5,.5,6.8,1.4,2.7,2.5,2.7,4.6-1,4-2.9,5.5-4.2,2.9-6.9,4-5.3,2-8,2.7-4.8,1.2-6.3,1.6c-.1.6-.2,1.2-.3,1.8v1.8c0,1.1.1,2.2.3,3.2.2,1.1.6,2,1.2,2.8.5.8,1.2,1.4,2.1,1.9.9.5,2,.7,3.3.7,2.7,0,5.6-1,8.7-3.1,3.1-2.1,6.2-4.7,9.3-7.8,2-2,3.8-4,5.3-6,1.5-1.9,2.8-3.7,3.8-5.3l.8.5h0l-.3.1ZM649.26,637.14c0-1.7-.8-2.5-2.4-2.5s-2.6.7-4.1,2c-1.5,1.4-2.8,3-4,4.9s-2.3,3.8-3.2,5.8-1.5,3.7-1.7,5c2.4-.5,4.5-1.4,6.5-2.5,1.9-1.1,3.5-2.4,4.9-3.8s2.3-2.9,3-4.4,1-3.1,1-4.5h0Z"/>
      <path class="cls-1" d="M702.76,643.84c-2.1,3.3-4.3,6.5-6.7,9.4s-5,5.6-7.9,7.8-6.2,4-9.8,5.3-7.7,2-12.3,2-3.3-.2-4.8-.5c-1.5-.4-2.8-.9-3.9-1.7-1.1-.8-1.9-1.8-2.6-3s-.9-2.7-.9-4.4.7-4,2-5.3,2.9-2,4.7-2,2.2.4,3.1,1.1c.9.7,1.3,1.8,1.3,3.3s-.4,2.3-1.1,3c-.7.7-1.6,1-2.5,1s-1.3,0-1.7-.3c-.3.5-.4,1.1-.4,1.7,0,1.9.5,3.4,1.5,4.5s2.4,1.6,4.3,1.6,4.3-.8,5.5-2.3,1.8-3.3,1.8-5.4-.4-2.5-1.1-3.7c-.7-1.2-1.6-2.4-2.4-3.7-.9-1.2-1.7-2.5-2.4-3.7s-1.1-2.5-1.1-3.8.3-2.8.9-4.2,1.5-2.5,2.8-3.6c1.2-1.1,2.7-1.9,4.5-2.5s3.8-.9,6.1-.9c3.3,0,6,.6,8.1,1.8s3.1,2.9,3.1,5.1-.5,3.1-1.6,4.1c-1.1,1.1-2.4,1.6-3.8,1.6s-2.5-.4-3.7-1.1c.4-.7.7-1.4.9-2.1.2-.7.3-1.5.3-2.5,0-1.5-.3-2.9-1-4.1-.7-1.2-1.7-1.8-3.2-1.8s-2.3.5-3.1,1.5c-.7,1-1.1,2.2-1.1,3.8s.4,2.9,1.3,4.2c.9,1.3,1.8,2.6,2.8,3.8,1,1.3,1.9,2.6,2.8,4,.9,1.4,1.3,3,1.3,4.7s-.4,3.8-1.3,5.2c-.9,1.4-2.2,2.7-4.1,3.8l.2.2c2.5-.7,4.9-1.9,7.2-3.4,2.4-1.5,4.6-3.3,6.8-5.4,2.2-2,4.2-4.3,6-6.7s3.5-4.8,4.9-7.2l.6.7h0l-.3.1Z"/>
      <path class="cls-1" d="M739.36,643.94c-1.3,2-2.8,4-4.4,6-1.6,2-3.5,4.1-5.5,6.2-3.9,4-7.8,7-11.5,9.1-3.7,2-7.8,3.1-12.4,3.1s-6.9-1-9-2.9c-2-1.9-3.1-4.8-3.1-8.4s.9-6.2,2.6-9.1,3.9-5.3,6.5-7.4c2.6-2.1,5.4-3.8,8.5-5.1s6-1.9,8.7-1.9,5,.5,6.8,1.4,2.7,2.5,2.7,4.6-1,4-2.9,5.5-4.2,2.9-6.9,4-5.3,2-8,2.7-4.8,1.2-6.3,1.6c-.1.6-.2,1.2-.3,1.8v1.8c0,1.1.1,2.2.3,3.2.2,1.1.6,2,1.2,2.8.5.8,1.2,1.4,2.1,1.9.9.5,2,.7,3.3.7,2.7,0,5.6-1,8.7-3.1,3.1-2.1,6.2-4.7,9.3-7.8,2-2,3.8-4,5.3-6,1.5-1.9,2.8-3.7,3.8-5.3l.8.5h0l-.3.1ZM720.56,637.14c0-1.7-.8-2.5-2.4-2.5s-2.6.7-4.1,2c-1.5,1.4-2.8,3-4,4.9s-2.3,3.8-3.2,5.8-1.5,3.7-1.7,5c2.4-.5,4.5-1.4,6.5-2.5,1.9-1.1,3.5-2.4,4.9-3.8s2.3-2.9,3-4.4,1-3.1,1-4.5h0Z"/>
      <path class="cls-1" d="M722.86,667.24l17.3-32.3,12.3-.4-13.1,20.5.2.2c3.1-4.8,6.1-8.6,8.8-11.5s5.1-4.8,7.2-5.7c.8-1,1.5-1.8,2.1-2.5.6-.6,1.4-1.1,2.4-1.5s2.3-.6,4-.8,4-.3,6.9-.4c-.7.7-1.4,1.5-2,2.5-.7.9-1.3,1.9-1.9,2.9s-1,2.1-1.4,3.2c-.4,1.1-.6,2.2-.6,3.2s.3,2.5.9,3.5,1.5,1.6,2.9,1.6,1.7-.2,2.6-.6,1.7-.9,2.5-1.5,1.5-1.3,2.3-2.1c.7-.8,1.3-1.5,1.9-2.3l.6.5c-.4.5-1,1.2-1.7,2.1-.7.9-1.7,1.9-3,2.8-1.2.9-2.7,1.7-4.5,2.4s-4,1-6.5,1-2.6-.2-3.8-.7-2.1-1-2.9-1.8c-.8-.7-1.4-1.6-1.8-2.5s-.6-2-.6-3.1c0-1.8.2-3.2.7-4.3v-.2c-1.7,1-3.6,2.6-5.6,4.8s-4,4.7-5.9,7.4-3.7,5.4-5.2,8.1c-1.6,2.7-2.8,4.9-3.5,6.8l-11.5.5h0l-.1.2Z"/>
      <path class="cls-1" d="M792.16,634.54c-.9,1.6-2.1,3.7-3.7,6.2s-3.2,5.1-4.8,7.8-3,5.3-4.2,7.9c-1.2,2.6-1.8,4.8-1.8,6.6s.3,2.2.9,3c.6.8,1.5,1.2,2.7,1.2,1.8,0,3.6-.7,5.4-2.1,1.8-1.4,3.6-3.2,5.2-5.4,1.7-2.2,3.2-4.8,4.5-7.6s2.4-5.7,3.2-8.6c-.2-.5-.4-1.2-.5-1.8,0-.7-.1-1.3-.1-2,0-1.6.5-3,1.4-4.3s2.1-1.9,3.7-1.9,3.7.7,4.7,2c.9,1.4,1.4,3.2,1.4,5.4s-.2,3-.5,4.3c1,1.1,2.1,1.8,3.1,2.2,1.1.4,2.1.5,3,.5,1.9,0,3.5-.5,4.9-1.5s2.5-2.2,3.5-3.5l.8.5c-.4.6-.9,1.2-1.5,1.9s-1.3,1.3-2.1,1.8-1.6,1-2.5,1.4-1.9.5-3,.5c-2.3,0-4.5-.8-6.4-2.5-.8,3.1-2.2,6.1-4.2,8.8s-4.3,5-6.9,6.9c-2.6,1.9-5.5,3.4-8.5,4.5s-6.1,1.6-9.1,1.6-6.2-1-8-3-2.8-4.7-2.8-8.1.3-3.1.8-4.7,1.2-3.3,2.1-5.1c.9-1.8,2-3.8,3.2-5.8,1.2-2.1,2.5-4.3,4-6.7l12.2-.4h-.1Z"/>
      <path class="cls-1" d="M838.36,634.54c-1.8,3.1-3.6,6.1-5.4,9-1.8,2.9-3.3,5.6-4.7,8.1s-2.5,4.7-3.3,6.7c-.8,1.9-1.2,3.5-1.2,4.6s.1,1.6.4,2.1c.3.6.8.9,1.5.9,1.1,0,2.4-.4,3.7-1.3,1.3-.9,2.7-2,4.2-3.3,1.4-1.4,2.8-2.9,4.3-4.6,1.4-1.7,2.8-3.4,4-5.1,1.2-1.7,2.4-3.2,3.4-4.7s1.8-2.7,2.4-3.6l.7.3c-1.4,2.1-3.1,4.5-5.1,7.5s-4.4,5.8-6.9,8.6c-2.6,2.8-5,5-7.3,6.5-2.2,1.5-4.7,2.2-7.5,2.2s-4.1-.7-5.3-2.1-1.8-3.4-1.8-5.9,1.1-6.1,3.3-10.2,5-9.1,8.3-15.1l12.2-.4h0l.1-.2ZM833.36,620.44c0-1.8.6-3.2,1.8-4.5s2.6-1.9,4.2-1.9,3.1.6,4.2,1.9,1.8,2.7,1.8,4.5-.6,3.2-1.8,4.5-2.6,1.9-4.2,1.9-3.1-.6-4.2-1.9-1.8-2.7-1.8-4.5Z"/>
      <path class="cls-1" d="M885.26,643.74c-2.2,3-4.5,6-6.8,8.8-2.3,2.9-5,5.6-8,8.2-2.7,2.4-5.6,4.2-8.6,5.5s-6.4,2-10.2,2-3-.2-4.5-.6c-1.5-.4-2.8-1.1-3.9-1.9-1.1-.8-2-1.9-2.7-3.3-.7-1.3-1-2.9-1-4.7,0-3.6.9-6.8,2.6-9.8,1.7-3,3.9-5.5,6.5-7.7,2.7-2.1,5.6-3.8,8.7-5s6.2-1.8,9.1-1.8,5,.5,6.7,1.5,2.6,2.5,2.6,4.5-.3,2.4-.8,3.3-1.2,1.7-2.1,2.4c-.9.6-1.9,1.1-3,1.4-1.1.3-2.3.5-3.6.5h-.7c.1-.7.2-1.4.2-2.2v-3c0-2.1-.2-3.7-.5-4.8s-1.1-1.6-2.1-1.6-2.5.7-3.9,2.2-2.8,3.2-4.1,5.4-2.3,4.5-3.2,7-1.3,4.8-1.3,6.9.6,4.7,1.8,6.3,3.1,2.5,5.5,2.5,5.2-.9,8-2.8,5.7-4.3,8.7-7.4c1.9-2,3.8-4.2,5.6-6.5s3.3-4.2,4.4-5.8l.7.6h0l-.1-.1Z"/>
      <path class="cls-1" d="M921.66,643.94c-1.3,2-2.8,4-4.4,6-1.6,2-3.5,4.1-5.5,6.2-3.9,4-7.8,7-11.5,9.1-3.7,2-7.8,3.1-12.4,3.1s-6.9-1-9-2.9-3.1-4.8-3.1-8.4.9-6.2,2.6-9.1,3.9-5.3,6.5-7.4c2.6-2.1,5.4-3.8,8.5-5.1s6-1.9,8.7-1.9,5,.5,6.8,1.4,2.7,2.5,2.7,4.6-1,4-2.9,5.5-4.2,2.9-6.9,4-5.3,2-8,2.7-4.8,1.2-6.3,1.6c-.1.6-.2,1.2-.3,1.8v1.8c0,1.1.1,2.2.3,3.2.2,1.1.6,2,1.2,2.8.5.8,1.2,1.4,2.1,1.9.9.5,2,.7,3.3.7,2.7,0,5.6-1,8.7-3.1,3.1-2.1,6.2-4.7,9.3-7.8,2-2,3.8-4,5.3-6,1.5-1.9,2.8-3.7,3.8-5.3l.8.5h0l-.3.1ZM902.86,637.14c0-1.7-.8-2.5-2.4-2.5s-2.6.7-4.1,2c-1.5,1.4-2.8,3-4,4.9s-2.3,3.8-3.2,5.8-1.5,3.7-1.7,5c2.4-.5,4.5-1.4,6.5-2.5,1.9-1.1,3.5-2.4,4.9-3.8s2.3-2.9,3-4.4,1-3.1,1-4.5h0Z"/>
    </g>
  </g>
</svg>