<?xml version="1.0" encoding="UTF-8"?>
<svg id="Lag_2" data-name="Lag 2" xmlns="http://www.w3.org/2000/svg" viewBox="0 0 827.96 878.53">
  <defs>
    <style>
      .cls-1 {
        fill: #292a53;
      }
    </style>
  </defs>
  <path class="cls-1" d="M716.51,670.04c-4.12-90.97,1.29-273.18,2.29-364.23.83-75.47,12.36-213.73-114.54-272.6-219.33-101.76-453.57,62.8-453.57,62.8,296.3-18.39,277.18,198.35,277.18,198.35v341.33s-16.49,245.73,183.26,242.82c184.07-2.68,216.83-136.08,216.83-136.08-113.07,36.57-110.2-44.76-111.45-72.38Z"/>
  <g>
    <path class="cls-1" d="M177.67,614.04l5.1-11.36c-16.63-7.6-31.79-16.07-44.84-24.82l-62.07,138.2h0l-48.63,108.28c10.57,14.11,24.04,26.31,40,35.6l110.43-245.9h0Z"/>
    <path class="cls-1" d="M49.63,704.28l23.57-52.48,16.35-36.4h0l24.93-55.51c-19.86-17.68-29.66-34.83-24.35-46.66L11.93,687.35c-15.67,34.89-15.38,72.89-2.22,105.81l39.92-88.88h0Z"/>
    <path class="cls-1" d="M195.27,769.69l63.42-141.23c-15.94-3.65-32.84-8.73-49.33-14.83l-5.47,12.18h0l-110.43,245.9c17.55,5.76,35.6,7.73,53.17,6.26l48.63-108.29h0Z"/>
    <path class="cls-1" d="M287.87,633.68l-26.45,58.89h0l-79.85,177.8c33.35-12.04,61.97-37.07,77.64-71.96l78.2-174.12c-4.54,10.1-23.89,12.48-49.54,9.39Z"/>
    <path class="cls-1" d="M242.47,504.84c43.35,19.47,82.61,26.03,87.71,14.67l-4.17-12.93-35.2-109.38-105.14,46.35-12.43,5.47c-5.1,11.36,25.9,36.35,69.23,55.81Z"/>
  </g>
  <path class="cls-1" d="M233.94,227.04s0-.01,0-.02c0-.04,0-.09,0-.13h0c-.36-7.83-1.87-15.74-4.67-23.5-14.98-41.64-60.87-63.25-102.51-48.27-41.64,14.98-63.25,60.87-48.27,102.51.15.4.31.79.46,1.2h-.02c28.71,92.17,199.59,53.24,199.59,53.24,0,0-41.87-18.45-44.58-85.03Z"/>
</svg>