<svg width="67" height="36" viewBox="0 0 67 36" fill="none" xmlns="http://www.w3.org/2000/svg">
<g clip-path="url(#clip0_165_333)">
<path d="M18.6296 1.48877C23.3035 1.48877 27.537 3.42911 30.5469 6.54097L6.70011 6.54097C9.72225 3.4169 13.9435 1.48877 18.6296 1.48877Z" fill="#292A53"/>
<path d="M33.1532 10.0435C34.1932 11.9228 34.8783 14.034 35.123 16.2794H2.13645C2.38116 14.0218 3.06634 11.9228 4.10635 10.0313L33.1532 10.0312V10.0435Z" fill="#292A53"/>
<path d="M35.1225 19.7939C34.8778 22.0394 34.2049 24.1383 33.1526 26.0299H4.10583C3.06582 24.1383 2.38064 22.0272 2.14817 19.7817L35.1348 19.7817L35.1225 19.7939Z" fill="#292A53"/>
<path d="M18.6174 34.5722C13.9435 34.5722 9.71001 32.6319 6.70011 29.52H30.5469C27.537 32.6319 23.3035 34.5722 18.6174 34.5722Z" fill="#292A53"/>
<path d="M37.9976 6.54097L18.629 6.54097V1.48877L41.9863 1.48877C40.3957 1.48877 38.9764 3.44131 37.9976 6.54097Z" fill="#292A53"/>
<path d="M37.166 10.0557C36.8479 11.9472 36.6521 14.0584 36.6399 16.2916H18.6294V10.0557L37.166 10.0557Z" fill="#292A53"/>
<path d="M37.5703 26.0177H18.6299V19.7817H36.7505C36.8974 21.9295 37.1788 24.0651 37.5703 26.0177Z" fill="#292A53"/>
<path d="M41.9746 34.5844H18.6173V29.5322H38.4386C39.3807 32.5465 40.6165 34.5844 41.9746 34.5844Z" fill="#292A53"/>
<path d="M53.3037 28.5435V7.5415L54.5395 8.65201C55.4449 10.3727 56.0566 13.9361 56.0566 18.0364C56.0566 22.149 55.4326 25.7001 54.5272 27.4208L53.2914 28.5313L53.3037 28.5435Z" fill="#292A53"/>
<path d="M54.5393 27.4329C55.4447 25.7122 56.0687 22.1488 56.0687 18.0485C56.0687 13.9481 55.4569 10.3847 54.5515 8.66406L64.9883 18.0485L54.5393 27.4329Z" fill="#292A53"/>
<path d="M53.3042 28.5435C51.7747 28.5435 50.5512 23.8452 50.5512 18.0486C50.5512 12.252 51.787 7.55371 53.3164 7.55371V28.5435H53.3042Z" fill="#292A53"/>
</g>
<defs>
<clipPath id="clip0_165_333">
<rect width="36" height="66.3158" fill="white" transform="matrix(0 1 -1 0 66.959 0)"/>
</clipPath>
</defs>
</svg>
