<?xml version="1.0" encoding="UTF-8"?>
<svg id="background" xmlns="http://www.w3.org/2000/svg" viewBox="0 0 737.01 737.01">
  <defs>
    <style>
      .cls-1 {
        fill: #f9f8f7;
        stroke: #faf9f8;
        stroke-linecap: round;
        stroke-linejoin: round;
        stroke-width: 12px;
      }
    </style>
  </defs>
  <path class="cls-1" d="M637.3,90.03l-2.07.42-4.14.22c-3.02,67.65-50.57,125.41-107.42,156.77-37.12,20.47-75.98,37.46-116.36,50.36-32.35,10.33-65.52,17.72-97.93,27.81-74.77,23.27-140.26,73.05-177.66,142.63-28.29,52.64-44.21,118.56-38.56,178.39l.63-.05,3.54.06,2.07.32c8.95-44.66,32.57-93.44,68.77-121.84,34.03-26.71,83.9-34.66,124.77-45.24,44.06-11.41,95.51-18.93,135.01-42.83,35.15-13.11,74.9-35.29,121.59-73.49l.16-.14c17.14-16.12,32.22-33.55,44.84-51.8h0c43.75-63.31,62.16-146.25,42.76-221.59ZM537.07,247.16c46.86-26.85,80.59-71.9,94.58-123.9-2.93,42.99-19.56,84.59-48.26,116.87-54.71,61.71-137.92,75.39-213.93,95.22,47.62-22.86,98.67-42.76,141.71-74.04,8.7-4.53,17.41-9.29,25.89-14.15,49.42-28.31-8.49,4.86,0,0ZM187.61,404.63c35.48-33.94,76.19-58.11,122.99-72.78,48.31-15.13,97.63-25.56,144.7-44.66-39.08,20.39-79.72,37.7-119.15,57.41-65.51,19.66-125.93,50.96-170.65,103.79-25.81,30.59-46.49,66.65-58.29,105,9.55-43.38,31.23-101.75,80.39-148.78,58.8-56.25-49.16,47.03,0,0ZM373.87,451.69c-45.87,13.82-92.82,23.75-138.71,37.51-44.74,13.41-80.09,30.41-106.39,70.7,18.61-33.9,45.93-64,80.54-81.95,50.9-26.39,109.76-17.23,164.57-26.26-19.71,5.94-5.66.93,0,0ZM545.45,358.75c-40.61,33.23-75.89,54.13-107.42,67.44l-.11-.56h-2.62c-.42,0-.64,0-1.65.55l-.04-.06c-2.65,1.66-5.31,3.3-7.97,4.95-34.42,13.46-70.95,17.67-107.58,19.43-39.37,1.9-78.8,3.67-114.15,23.06,36.18-27.38,78.48-46.62,123.05-55.26,42.16-8.15,85.03-11.04,126.62-22.36,36.61-9.97,72.48-25.59,103.09-48.26-3.64,3.75-7.38,7.45-11.24,11.07-40.61,33.23,3.85-3.63,0,0ZM638.08,165.25c-2.54,51.57-18.91,99.57-48.66,142.66-47.46,58.16-123.29,82.46-194.95,93.78-50.77,8.02-99.83,13.62-146.45,36.99-36.06,18.08-68.96,43.12-94.11,74.8-24.79,27.44-42.17,61.1-52.7,96.43,6.46-53.42,28.04-104.86,60.96-147.35,47.25-60.98,114.1-94.48,187.01-115.17,77.71-22.05,164.28-31.82,225.65-89.49,35.09-32.98,57.12-77.74,62.39-125.53.76,9.77,1.18,20.89.87,32.87-2.54,51.57.31-11.99,0,0Z"/>
</svg>